<svg width="60" height="52" viewBox="0 0 60 52" fill="none" xmlns="http://www.w3.org/2000/svg">
<path d="M51.1186 13.4915V4.62836C51.1177 2.29106 49.2253 0.397544 46.8872 0.396606H13.1132C10.7752 0.397544 8.88281 2.29118 8.88187 4.62836V13.4915L0 35.7397V49.0328C0.00222656 50.4536 1.14879 51.6006 2.57086 51.6033H57.429C58.8511 51.6006 59.9978 50.4536 60 49.0328V35.7397L51.1186 13.4915ZM11.703 4.62836C11.7043 3.85047 12.3353 3.21872 13.1132 3.21778H46.8872C47.6651 3.21872 48.296 3.85047 48.2974 4.62836V13.5934H44.7621V10.3038C44.7616 8.03172 42.9209 6.19047 40.6479 6.18954H35.2213C32.9483 6.19047 31.1084 8.03172 31.1075 10.3038V13.5934H28.8925V10.3038C28.8915 8.03172 27.0517 6.19047 24.7787 6.18954H19.3521C17.0791 6.19047 15.2384 8.03172 15.2379 10.3038V13.5934H11.703V4.62836ZM42.8814 10.3038V13.5934H32.9884V10.3038C32.9906 9.07141 33.9888 8.07215 35.2213 8.07028H40.6479C41.8812 8.07227 42.879 9.07141 42.8814 10.3038ZM27.0117 10.3038V13.5934H17.1188V10.3038C17.121 9.07141 18.1188 8.07215 19.3522 8.07028H24.7788C26.0111 8.07227 27.0094 9.07141 27.0117 10.3038ZM11.1278 15.4742H48.8727L49.8939 18.0327H10.1065L11.1278 15.4742ZM9.35578 19.9136H50.6448L56.6953 35.071H3.30469L9.35578 19.9136ZM57.1788 48.7822H2.82117V36.9518H57.1787V48.7822H57.1788Z" fill="black"/>
</svg>
