<?xml version="1.0" encoding="iso-8859-1"?>
<!-- Uploaded to: SVG Repo, www.svgrepo.com, Generator: SVG Repo Mixer Tools -->
<svg fill="#000000" height="800px" width="800px" version="1.1" id="Layer_1" xmlns="http://www.w3.org/2000/svg" xmlns:xlink="http://www.w3.org/1999/xlink" 
	 viewBox="0 0 512.001 512.001" xml:space="preserve">
<g>
	<g>
		<path d="M477.939,40.142h-60.871h-12.563h-90.393h-6.986h-69.246h-10.159H62.411c-9.01,0-17.002,3.565-22.507,10.041
			c-5.424,6.382-7.714,15.069-6.289,23.798l18.743,118.003c0.002,0.012,0.004,0.024,0.007,0.036
			c1.605,9.814,7.649,18.579,15.778,24.312v5.203h-4.931C28.357,221.535,0,249.89,0,284.744v20.292
			c0,11.638,9.468,21.107,21.105,21.107c11.638,0,21.106-9.469,21.106-21.107v-20.292c0-10.807,8.208-19.727,18.715-20.871
			c-1.132,2.307-1.96,4.773-2.404,7.35L42.43,364.987c-0.602,3.507-0.429,7.001,0.449,10.254h-2.354
			c-14.017,0-25.423,11.405-25.423,25.423v45.772c0,14.018,11.405,25.424,25.423,25.424h329.234h55.949h60.87
			c14.017,0,25.423-11.405,25.423-25.424V74.204C512,55.423,496.721,40.142,477.939,40.142z M264.377,56.443h13.701
			c-3.175,5.175-5.01,11.257-5.01,17.761v74.187h-18.21l11.813-74.373C267.675,67.863,266.838,61.751,264.377,56.443z
			 M273.068,164.691v210.551h-15.633c0.878-3.252,1.051-6.747,0.449-10.253l-16.089-93.766c-1.125-6.548-4.692-12.391-9.625-16.653
			v-38.253c8.121-5.737,14.158-14.507,15.763-24.333l4.336-27.294H273.068z M49.708,71.389c-0.669-4.096,0.26-7.877,2.616-10.649
			s5.938-4.298,10.086-4.298h165.313h10.159c4.149,0,7.731,1.526,10.086,4.298c2.356,2.772,3.285,6.554,2.61,10.684l-18.737,117.968
			c-1.555,9.527-11.025,17.575-20.678,17.575H89.132c-9.647,0-19.115-8.04-20.679-17.561L49.708,71.389z M231.885,309.844H68.432
			l6.155-35.859c0.923-5.366,6.42-10.072,11.864-10.241h23.158c0.185,0,0.366-0.005,0.554-0.016H213.57
			c5.541,0,11.223,4.791,12.161,10.254L231.885,309.844z M25.912,284.744v20.292c0,2.65-2.156,4.807-4.806,4.807
			s-4.805-2.157-4.805-4.807v-20.292c0-25.866,21.043-46.909,46.911-46.909h13.081c4.502,0,8.15-3.648,8.15-8.15v-5.705H215.87
			v23.448H109.934c-0.078,0-0.158,0.001-0.235,0.003c-0.097,0.003-0.191,0.008-0.289,0.013H86.751v-0.016
			c-0.112,0-0.222,0.014-0.333,0.016H63.211C42.643,247.444,25.912,264.177,25.912,284.744z M58.494,367.746l7.141-41.602h169.047
			l7.138,41.603c0.364,2.119-0.066,4.034-1.208,5.39c-1.144,1.357-2.959,2.105-5.109,2.105H64.813c-2.152,0-3.966-0.748-5.111-2.105
			C58.56,371.781,58.13,369.866,58.494,367.746z M434.832,446.435c0,5.03-4.092,9.124-9.123,9.124h-55.951H40.525
			c-5.03,0-9.123-4.094-9.123-9.124v-45.772c0-5.03,4.092-9.123,9.123-9.123h240.693c4.502,0,8.15-3.648,8.15-8.15V74.204
			c0-9.794,7.966-17.762,17.758-17.762h6.986h90.395h12.563c9.794,0,17.762,7.967,17.762,17.762V446.435z M495.7,446.435
			c0,5.03-4.092,9.124-9.123,9.124h-37.147c1.093-2.834,1.7-5.908,1.7-9.124V74.204c0-6.504-1.834-12.587-5.011-17.762h31.82
			c9.793,0,17.76,7.967,17.76,17.762V446.435z"/>
	</g>
</g>
<g>
	<g>
		<path d="M369.757,94.266c-15.922,0-28.876,12.955-28.876,28.878v132.434c0,15.924,12.954,28.879,28.876,28.879
			c15.924,0,28.88-12.955,28.88-28.879V123.144C398.637,107.221,385.681,94.266,369.757,94.266z M382.337,131.553H363.21v16.3
			h19.128v8.529h-9.457v16.3h9.457v8.529H363.21v16.3h19.128v8.529h-9.457v16.3h9.457v8.529H363.21v16.3h19.128v8.409
			c0,6.935-5.644,12.579-12.58,12.579c-6.935,0-12.576-5.643-12.576-12.579V123.144c0-6.936,5.641-12.578,12.576-12.578
			c6.937,0,12.58,5.642,12.58,12.578V131.553z"/>
	</g>
</g>
<g>
	<g>
		<path d="M369.757,385.46c-15.922,0-28.876,12.956-28.876,28.88c0,15.923,12.954,28.877,28.876,28.877
			c15.924,0,28.88-12.954,28.88-28.877C398.637,398.416,385.681,385.46,369.757,385.46z M369.757,426.917
			c-6.935,0-12.576-5.642-12.576-12.577c0-6.937,5.641-12.58,12.576-12.58c6.937,0,12.58,5.643,12.58,12.58
			C382.337,421.275,376.693,426.917,369.757,426.917z"/>
	</g>
</g>
</svg>