<svg width="58" height="60" viewBox="0 0 58 60" fill="none" xmlns="http://www.w3.org/2000/svg">
<path d="M52.6375 4.62105C49.6159 1.65633 45.5555 0 41.3311 0C41.2287 0 41.1272 0.000820313 41.0248 0.00316406L40.9545 0.00480469L11.0672 3.30234L0 1.39172V32.4434L11.064 30.5927L27.352 32.3618V52.3575C27.352 53.4084 27.5655 54.4177 27.9534 55.3327C28.534 56.7066 29.5009 57.8694 30.7206 58.6932C31.9378 59.5171 33.4165 60.0001 34.9945 60.0001C36.0455 60.0001 37.0547 59.7858 37.9697 59.3987C39.3429 58.8173 40.5066 57.8504 41.3303 56.6316C42.1541 55.4135 42.637 53.9348 42.637 52.3576V33.7869C46.3848 33.483 49.9293 31.8819 52.6373 29.2242C55.7309 26.1875 57.4743 22.0359 57.4743 17.7012V16.144C57.4744 11.8095 55.7309 7.65691 52.6375 4.62105ZM9.88676 27.6574L3.09035 28.7931V5.06086L9.88676 6.23496V27.6574ZM39.5469 52.3575C39.5469 52.9901 39.4189 53.5852 39.1902 54.129C38.8454 54.9439 38.2656 55.6421 37.5387 56.1332C36.81 56.6242 35.9422 56.9098 34.9945 56.9098C34.3611 56.9098 33.7661 56.7826 33.2222 56.553C32.4081 56.2083 31.7091 55.6286 31.218 54.9015C30.727 54.173 30.4423 53.306 30.4414 52.3575V32.6977L39.5468 33.6878V52.3575H39.5469ZM44.0823 30.4575C43.1842 30.6518 42.2628 30.7542 41.3311 30.7542C41.2711 30.7542 41.2088 30.7542 41.1471 30.7526L12.977 27.6927V6.20051L41.1496 3.09188C41.2104 3.09023 41.2712 3.09023 41.3311 3.09023C42.2628 3.09023 43.1842 3.19266 44.0823 3.38695V30.4575ZM54.3841 17.7012C54.3841 21.2066 52.975 24.564 50.4732 27.0184C49.4936 27.979 48.377 28.7675 47.1718 29.3706V4.47387C48.3771 5.07691 49.4936 5.86465 50.4732 6.82676C52.975 9.28113 54.3841 12.6387 54.3841 16.144V17.7012Z" fill="black"/>
<path d="M22.5547 35.8053V40.0633C22.5547 40.8214 23.1697 41.4356 23.9279 41.4356H26.6743V34.4321H23.9279C23.1698 34.4321 22.5547 35.0472 22.5547 35.8053Z" fill="black"/>
</svg>
