<svg width="68" height="73" viewBox="0 0 68 73" fill="none" xmlns="http://www.w3.org/2000/svg">
<path d="M34 47.3594H38.2501V55.8596H34V47.3594ZM50.9999 47.3594H55.25V55.8596H50.9999V47.3594ZM34 60.1097H38.2501V73.0012H34V60.1097ZM50.9999 60.1097H55.25V73.0012H50.9999V60.1097ZM42.4997 55.8596H46.7498V68.7511H42.4997V55.8596Z" fill="black"/>
<path d="M36.1251 4.85922H12.7503V3.62522L0 0.4375V22.1724L12.7503 18.9847V17.609H36.1251C37.2971 17.609 38.2504 18.5623 38.2504 19.7343V21.8591H36.1251C30.8845 21.8591 26.5215 25.674 25.6579 30.671C23.1029 31.5025 21.25 33.9058 21.25 36.7342V43.1096H42.4999V51.6093H46.75V43.1096H68V36.7342C68 33.9058 66.1476 31.5025 63.5921 30.671C62.729 25.674 58.3654 21.8591 53.1249 21.8591H51.0001V19.7343C51.0001 11.5319 44.3274 4.85922 36.1251 4.85922ZM8.50021 15.6669L4.2501 16.7293V5.88064L8.50021 6.94303V15.6669ZM63.7505 38.8589H25.5001V36.7342C25.5001 35.5622 26.4534 34.6094 27.6248 34.6094H61.6251C62.7971 34.6094 63.7505 35.5622 63.7505 36.7342V38.8589ZM53.1249 26.1092C55.8952 26.1092 58.2575 27.8857 59.135 30.3593H30.1156C30.993 27.8857 33.3548 26.1092 36.1251 26.1092H42.4999V19.7343C42.4999 16.2189 39.6405 13.3589 36.1251 13.3589H12.7503V9.10933H36.1251C41.984 9.10933 46.75 13.8754 46.75 19.7343V26.1092H53.1249Z" fill="black"/>
</svg>
