<svg width="37" height="40" viewBox="0 0 37 71" fill="none" xmlns="http://www.w3.org/2000/svg">
<path d="M32.9332 18.0158C31.4149 16.5178 29.5626 15.4772 27.5472 14.9601V6.91543C27.5472 3.10279 24.4455 0.000976562 20.633 0.000976562H15.8431C12.0306 0.000976562 8.9288 3.10279 8.9288 6.9153V14.9599C6.91349 15.477 5.06111 16.5176 3.54279 18.0157C1.29131 20.2375 0 23.3261 0 26.4894V71.001H36.4758V26.4895C36.4758 23.3263 35.1847 20.2376 32.9332 18.0158ZM13.5591 6.9153C13.5592 5.65602 14.5836 4.63137 15.843 4.63137H20.6328C21.8921 4.63137 22.9168 5.65588 22.9168 6.9153V14.5844H13.5592L13.5591 6.9153ZM4.63053 26.4895C4.63053 24.5566 5.41957 22.6693 6.7952 21.3117C8.16528 19.9596 9.98021 19.2148 11.905 19.2148H24.5706C26.4956 19.2148 28.3103 19.9595 29.6804 21.3117C31.0561 22.6693 31.845 24.5564 31.845 26.4895V29.168H4.63053V26.4895ZM31.8454 66.3706H4.63053V56.4177H31.8454V66.3706ZM31.8454 51.7872H4.63053V33.7984H31.8454V51.7872Z" fill="black"/>
</svg>
