<svg width="73" height="71" viewBox="0 0 73 71" fill="none" xmlns="http://www.w3.org/2000/svg">
<path d="M16.618 0C13.5395 0 10.9602 0.776563 9.20738 2.52938C7.45457 4.28219 6.67801 6.86149 6.67801 9.94V11.36H2.41801C2.37363 11.36 2.32926 11.36 2.28488 11.36C1.50277 11.3988 0.892615 12.0645 0.931443 12.8466C0.970271 13.6287 1.6359 14.2388 2.41801 14.2H6.67801V40.9138C6.63918 41.1023 6.63918 41.302 6.67801 41.4906V49.4338C6.63918 49.6224 6.63918 49.822 6.67801 50.0106V58.22C6.67801 59.0021 7.3159 59.64 8.09801 59.64H15.198V69.58C15.198 70.3621 15.8359 71 16.618 71H62.058C62.8401 71 63.478 70.3621 63.478 69.58V15.8419C63.4836 15.7698 63.4836 15.6921 63.478 15.62V14.2H70.578C71.0883 14.2055 71.5654 13.9393 71.8261 13.4955C72.0812 13.0518 72.0812 12.5082 71.8261 12.0645C71.5654 11.6207 71.0883 11.3545 70.578 11.36H63.478V9.94C63.478 7.01125 62.5461 4.47633 60.7711 2.70688C58.9961 0.937422 56.4557 0 53.538 0H16.618ZM16.618 2.84H53.538C55.8677 2.84 57.5983 3.53336 58.7743 4.70375C59.4121 5.34164 59.8725 6.17367 60.1943 7.14438C58.9573 6.20141 57.5928 5.68 56.378 5.68C54.9469 5.68 53.0332 6.06828 51.5855 7.6325C50.1378 9.19672 49.278 11.7205 49.278 15.62V37.0531C47.9911 37.3305 46.8707 37.9462 45.8168 38.4731C44.3968 39.1831 43.1265 39.76 42.178 39.76C41.2295 39.76 39.9593 39.1831 38.5393 38.4731C37.1193 37.7631 35.5495 36.92 33.658 36.92C31.7665 36.92 30.1968 37.7631 28.7768 38.4731C27.3568 39.1831 26.0865 39.76 25.138 39.76C24.1895 39.76 22.9193 39.1831 21.4993 38.4731C20.0793 37.7631 18.5095 36.92 16.618 36.92C14.7265 36.92 13.1568 37.7631 11.7368 38.4731C10.938 38.8725 10.1947 39.2552 9.51801 39.4938V13.0463C9.55683 12.8577 9.55683 12.658 9.51801 12.4694V9.94C9.51801 7.33852 10.1614 5.65781 11.2486 4.57063C12.3358 3.48344 14.0165 2.84 16.618 2.84ZM56.378 8.52C57.2544 8.52 58.214 8.77516 59.0405 9.71813C59.3789 10.1064 59.7006 10.6555 59.9724 11.36H52.6949C52.9722 10.5169 53.3106 9.92891 53.6711 9.54063C54.4588 8.69195 55.4018 8.52 56.378 8.52ZM52.1624 14.2H60.5493C60.5881 14.6382 60.638 15.1097 60.638 15.62C60.638 15.6644 60.638 15.7088 60.638 15.7531V68.16H18.038V59.64H50.698C51.4801 59.64 52.118 59.0021 52.118 58.22V47.1263C52.1568 46.9377 52.1568 46.738 52.118 46.5494V38.6063C52.1568 38.4177 52.1568 38.218 52.118 38.0294V15.62C52.118 15.1152 52.1346 14.6382 52.1624 14.2ZM16.618 39.76C17.5665 39.76 18.8368 40.3369 20.2568 41.0469C21.6768 41.7569 23.2465 42.6 25.138 42.6C27.0295 42.6 28.5993 41.7569 30.0193 41.0469C31.4393 40.3369 32.7095 39.76 33.658 39.76C34.6065 39.76 35.8768 40.3369 37.2968 41.0469C38.7168 41.7569 40.2865 42.6 42.178 42.6C44.0695 42.6 45.6393 41.7569 47.0593 41.0469C47.858 40.6475 48.6013 40.2648 49.278 40.0263V45.5731C47.9911 45.8505 46.8707 46.4662 45.8168 46.9931C44.3968 47.7031 43.1265 48.28 42.178 48.28C41.2295 48.28 39.9593 47.7031 38.5393 46.9931C37.1193 46.2831 35.5495 45.44 33.658 45.44C31.7665 45.44 30.1968 46.2831 28.7768 46.9931C27.3568 47.7031 26.0865 48.28 25.138 48.28C24.1895 48.28 22.9193 47.7031 21.4993 46.9931C20.0793 46.2831 18.5095 45.44 16.618 45.44C14.7265 45.44 13.1568 46.2831 11.7368 46.9931C10.938 47.3925 10.1947 47.7752 9.51801 48.0138V42.4669C10.8049 42.1895 11.9254 41.5738 12.9793 41.0469C14.3993 40.3369 15.6695 39.76 16.618 39.76ZM16.618 48.28C17.5665 48.28 18.8368 48.8569 20.2568 49.5669C21.6768 50.2769 23.2465 51.12 25.138 51.12C27.0295 51.12 28.5993 50.2769 30.0193 49.5669C31.4393 48.8569 32.7095 48.28 33.658 48.28C34.6065 48.28 35.8768 48.8569 37.2968 49.5669C38.7168 50.2769 40.2865 51.12 42.178 51.12C44.0695 51.12 45.6393 50.2769 47.0593 49.5669C47.858 49.1675 48.6013 48.7848 49.278 48.5463V56.8H9.51801V50.9869C10.8049 50.7095 11.9254 50.0938 12.9793 49.5669C14.3993 48.8569 15.6695 48.28 16.618 48.28Z" fill="black"/>
</svg>
