<svg width="72" height="71" viewBox="0 0 72 71" fill="none" xmlns="http://www.w3.org/2000/svg">
<path d="M50.1256 54.7292C46.4422 57.5506 42.0408 59.2814 37.4222 59.7248C32.8037 60.1682 28.1534 59.3064 24.0004 57.2374C19.8475 55.1683 16.3587 51.9752 13.9309 48.0212C11.5031 44.0673 10.2339 39.5113 10.2676 34.8716C10.3013 30.2319 11.6366 25.6948 14.1216 21.7766C16.6066 17.8583 20.1415 14.7162 24.324 12.7078C28.5066 10.6993 33.1689 9.90515 37.7806 10.4156C42.3922 10.9261 46.768 12.7207 50.41 15.5953L50.0869 16.0046C46.5215 13.1905 42.2378 11.4337 37.7232 10.9339C33.2086 10.4342 28.6443 11.2117 24.5498 13.1779C20.4552 15.1441 16.9947 18.2201 14.562 22.0559C12.1293 25.8917 10.8221 30.3333 10.7891 34.8754C10.7561 39.4175 11.9986 43.8776 14.3753 47.7484C16.752 51.6191 20.1674 54.7451 24.233 56.7706C28.2985 58.7961 32.851 59.6398 37.3724 59.2057C41.8938 58.7717 46.2026 57.0772 49.8086 54.3152L50.1256 54.7292Z" stroke="white" stroke-width="2"/>
<path d="M70.082 36.3286C70.6343 36.3286 71.082 35.8809 71.082 35.3286C71.082 34.7763 70.6343 34.3286 70.082 34.3286L70.082 36.3286ZM30.6281 34.6215C30.2376 35.012 30.2376 35.6452 30.6281 36.0357L36.9921 42.3997C37.3826 42.7902 38.0158 42.7902 38.4063 42.3997C38.7968 42.0092 38.7968 41.376 38.4063 40.9855L32.7494 35.3286L38.4063 29.6718C38.7968 29.2812 38.7968 28.6481 38.4063 28.2575C38.0158 27.867 37.3826 27.867 36.9921 28.2575L30.6281 34.6215ZM70.082 34.3286L31.3352 34.3286L31.3352 36.3286L70.082 36.3286L70.082 34.3286Z" fill="white"/>
</svg>
