<svg width="72" height="71" viewBox="0 0 72 71" fill="none" xmlns="http://www.w3.org/2000/svg">
<path d="M20.9759 54.7292C24.6594 57.5506 29.0608 59.2814 33.6793 59.7248C38.2979 60.1682 42.9482 59.3064 47.1011 57.2374C51.2541 55.1683 54.7429 51.9752 57.1707 48.0212C59.5984 44.0673 60.8677 39.5113 60.8339 34.8716C60.8002 30.2319 59.4649 25.6948 56.9799 21.7766C54.495 17.8583 50.9601 14.7162 46.7775 12.7078C42.595 10.6993 37.9326 9.90515 33.321 10.4156C28.7094 10.9261 24.3336 12.7207 20.6915 15.5953L21.0146 16.0046C24.58 13.1905 28.8638 11.4337 33.3784 10.9339C37.893 10.4342 42.4572 11.2117 46.5518 13.1779C50.6464 15.1441 54.1069 18.2201 56.5396 22.0559C58.9723 25.8917 60.2795 30.3333 60.3125 34.8754C60.3455 39.4175 59.103 43.8776 56.7263 47.7484C54.3496 51.6191 50.9342 54.7451 46.8686 56.7706C42.803 58.7961 38.2506 59.6398 33.7292 59.2057C29.2078 58.7717 24.899 57.0772 21.293 54.3152L20.9759 54.7292Z" stroke="white" stroke-width="2"/>
<path d="M1.01953 36.3286C0.467246 36.3286 0.0195312 35.8809 0.0195312 35.3286C0.0195313 34.7763 0.467247 34.3286 1.01953 34.3286L1.01953 36.3286ZM40.4734 34.6215C40.864 35.012 40.864 35.6452 40.4734 36.0357L34.1095 42.3997C33.719 42.7902 33.0858 42.7902 32.6953 42.3997C32.3047 42.0092 32.3047 41.376 32.6953 40.9855L38.3521 35.3286L32.6953 29.6718C32.3047 29.2812 32.3047 28.6481 32.6953 28.2575C33.0858 27.867 33.719 27.867 34.1095 28.2575L40.4734 34.6215ZM1.01953 34.3286L39.7663 34.3286L39.7663 36.3286L1.01953 36.3286L1.01953 34.3286Z" fill="white"/>
</svg>
